<svg xmlns="http://www.w3.org/2000/svg" viewBox="0 0 139.05 73.43"><defs><style>.cls-1{fill:#252354;}</style></defs><g id="Слой_2" data-name="Слой 2"><g id="Menu"><g id="Logo"><path class="cls-1" d="M104.44,60.36c-3.53,2.8-8.24,1.31-11.79.38V73.23h12.63c-.33-5.75-.84-12.86-.84-12.87"/><path class="cls-1" d="M92.65,0V49.79c1.25-.06,3.16-.09,4.71-.18,7.8-.43,9.36-2.69,9.8-3.17,2.69-2.94,2.57-5.2,4-6.06,0,0-.08-1.62,1-1.62.23,0,.66.35.83.62,0,0,2.82.33,3.15,1.95.06.32.55,1,2.4,2.29,0,0,1,.63,1,1.19,0,0,.06.41-.74.72,0,0-1.28.61-4.48-.17-2.49-.61-4.41,3.15-4.07,6.55.78,7.72-2.34,10.29-2.53,11.33,0,0-.16,5.66-.27,10h11.87A14.14,14.14,0,0,0,118.17,67c-1.37-3.31,0-4.89.7-5.87.89-1.49-.71-1.73-.71-1.73-.33-.08-.87,0-1.21-.3A1.45,1.45,0,0,1,116.4,58a.24.24,0,0,1,.1-.22l.47-.44c.14-.12.26-1.45,1.36-1.71a9.3,9.3,0,0,0,1.4-.45,3,3,0,0,1,1.49-1.35A4,4,0,0,1,122,56a4.33,4.33,0,0,1,1.12,2.85c.41,4.67,5.72,5.11,7.41,9.62a13.7,13.7,0,0,1,.81,4.79,3.55,3.55,0,0,0,.53-4.91c-1.84-2.83-1.63-4.48-1-5.19a2,2,0,0,1,2.1-.5,1.43,1.43,0,0,1,.93.81.38.38,0,0,1,0,.36c-.06.11-.17.13-.29.15a1.13,1.13,0,0,0-.9.73,2.43,2.43,0,0,0,.1,1.53,7.6,7.6,0,0,0,.68,1.33l.11.18a8,8,0,0,1,1.07,2.43l0,.09a5.6,5.6,0,0,1,0,3h3.79c.66-4.92,7.71-44.88-45.75-73.23"/><path class="cls-1" d="M19.39,37.12a5.45,5.45,0,0,0,2.95.78,5.41,5.41,0,0,0,2.95-.79A5.07,5.07,0,0,0,27.14,35a6.92,6.92,0,0,0,.62-3,6.84,6.84,0,0,0-.62-2.91A5.08,5.08,0,0,0,25.29,27a5.31,5.31,0,0,0-2.95-.79,5.28,5.28,0,0,0-2.95.79,5,5,0,0,0-1.84,2.11,7.26,7.26,0,0,0,0,5.87,5,5,0,0,0,1.84,2.11m-1.46-5.06a6.21,6.21,0,0,1,.51-2.57A4.11,4.11,0,0,1,20,27.71a4.22,4.22,0,0,1,2.39-.66,4.25,4.25,0,0,1,2.4.66,4.11,4.11,0,0,1,1.51,1.78,6.78,6.78,0,0,1,0,5.16,4.11,4.11,0,0,1-1.51,1.78,4.25,4.25,0,0,1-2.4.65A4.21,4.21,0,0,1,20,36.43a4.11,4.11,0,0,1-1.51-1.78,6.3,6.3,0,0,1-.51-2.59"/><path class="cls-1" d="M39.71,37.16a4.75,4.75,0,0,0,1.87-2.07,7,7,0,0,0,.63-3,6.87,6.87,0,0,0-.63-3A4.83,4.83,0,0,0,39.71,27a5.69,5.69,0,0,0-3-.76H32.9V37.91h3.81a5.68,5.68,0,0,0,3-.75m-5.8-.08v-10h2.8A4.16,4.16,0,0,1,40,28.43a5.4,5.4,0,0,1,1.17,3.64A5.43,5.43,0,0,1,40,35.74a4.2,4.2,0,0,1-3.32,1.34Z"/><polygon class="cls-1" points="47.17 37.91 54.09 37.91 54.09 37.08 48.18 37.08 48.18 32.15 53.06 32.15 53.06 31.32 48.18 31.32 48.18 27.06 54.09 27.06 54.09 26.23 47.17 26.23 47.17 37.91"/><path class="cls-1" d="M65.81,31.39a2.85,2.85,0,0,0,.8-2.07,3,3,0,0,0-.43-1.58,3,3,0,0,0-1.29-1.1,4.73,4.73,0,0,0-2.06-.41H59.19V37.91h1V32.44h2.26l4,5.46h1.16l-4.08-5.56a3.63,3.63,0,0,0,2.26-1m-.21-2.05a2.06,2.06,0,0,1-.7,1.7,3.31,3.31,0,0,1-2.07.57H60.2V27.06h2.63a3.08,3.08,0,0,1,2,.62,2.08,2.08,0,0,1,.72,1.66"/><polygon class="cls-1" points="73.72 28.09 80.8 37.92 80.81 37.93 81.63 37.91 81.63 26.23 80.62 26.23 80.62 36.11 73.54 26.24 73.54 26.23 72.71 26.23 72.71 37.91 73.72 37.91 73.72 28.09"/><polygon class="cls-1" points="10.3 26.23 5.91 36.47 1.42 26.24 1.42 26.23 0 26.23 0 37.96 1 37.96 1 27.73 5.48 37.97 6.36 37.97 10.83 27.49 10.83 37.96 11.83 37.96 11.83 26.23 10.3 26.23"/><polygon class="cls-1" points="21.05 46.38 12.86 68.83 4.66 46.38 0 46.38 10.57 73.43 15.11 73.43 25.63 46.38 21.05 46.38"/><polygon class="cls-1" points="34.87 46.38 34.87 73.43 52.06 73.43 52.06 70.13 39.45 70.13 39.45 60.78 49.65 60.78 49.65 57.48 39.45 57.48 39.45 49.68 51.26 49.68 51.26 46.38 34.87 46.38"/><polygon class="cls-1" points="59.54 46.38 59.54 49.71 68.25 49.71 68.25 73.37 72.83 73.37 72.83 49.71 81.63 49.71 81.63 46.38 59.54 46.38"/></g></g></g></svg>